<svg fill="#000000" version="1.1" id="Capa_1" xmlns="http://www.w3.org/2000/svg" xmlns:xlink="http://www.w3.org/1999/xlink" 
	 width="800px" height="800px" viewBox="0 0 342.382 342.382"
	 xml:space="preserve">
<g>
	<g>
		<g>
			<path d="M60,160c-10,0-20,10-20,20s10,20,20,20s20-10,20-20S70,160,60,160z"/>
		</g>
		<g>
			<path d="M120,160c-10,0-20,10-20,20s10,20,20,20s20-10,20-20S130,160,120,160z"/>
		</g>
		<g>
			<path d="M180,160c-10,0-20,10-20,20s10,20,20,20s20-10,20-20S190,160,180,160z"/>
		</g>
	</g>
</g>
</svg>