<svg xmlns="http://www.w3.org/2000/svg" viewBox="0 0 26 37" height="37" width="26"
    style="display: block; overflow: visible; grid-area: 1;">
    <g fill="none" fill-rule="evenodd" style="pointer-events: auto;">
        <path class="RIFvHW-maps-pin-view-background" fill="#594FBF"
            d="M13.0167 35C12.7836 35 12.7171 34.9346 12.3176 33.725C11.9848 32.6789 11.4854 31.0769 10.1873 29.1154C8.92233 27.1866 7.59085 25.6173 6.32594 24.1135C3.36339 20.5174 1 17.7057 1 12.6385C1.03329 6.19808 6.39251 1 13.0167 1C19.6408 1 25 6.23078 25 12.6385C25 17.7057 22.6699 20.55 19.6741 24.1462C18.4425 25.65 17.1443 27.2193 15.8793 29.1154C14.6144 31.0442 14.0818 32.6135 13.749 33.6596C13.3495 34.9346 13.2497 35 13.0167 35Z"></path>
        <path class="KWCFZI-maps-pin-view-default-glyph"
            d="M13 18C15.7614 18 18 15.7614 18 13C18 10.2386 15.7614 8 13 8C10.2386 8 8 10.2386 8 13C8 15.7614 10.2386 18 13 18Z"
            fill="#ABA5EA"></path>
    </g>
</svg>