<svg width="36" height="44" viewBox="0 0 36 44" fill="none" xmlns="http://www.w3.org/2000/svg">
    <path fill-rule="evenodd" clip-rule="evenodd"
        d="M17.6163 42.6744L19.3325 40.8461C21.28 38.7376 23.0316 36.737 24.5901 34.8341L25.8766 33.2296C31.2484 26.387 33.9357 20.9561 33.9357 16.9421C33.9357 8.37414 26.63 1.42871 17.6163 1.42871C8.60253 1.42871 1.29688 8.37414 1.29688 16.9421C1.29688 20.9561 3.98414 26.387 9.35594 33.2296L10.6425 34.8341C12.8658 37.5274 15.1919 40.1409 17.6163 42.6744Z"
        fill="#ea4335" stroke="#b31412" stroke-width="2.19048" stroke-linecap="round"
        stroke-linejoin="round" />
    <path
        d="M17.6162 23.2859C21.3716 23.2859 24.4159 20.4077 24.4159 16.8573C24.4159 13.3069 21.3716 10.4287 17.6162 10.4287C13.8608 10.4287 10.8164 13.3069 10.8164 16.8573C10.8164 20.4077 13.8608 23.2859 17.6162 23.2859Z"
        fill="#b31412" />
</svg>
    