<svg width="277" height="153" viewBox="0 0 277 153" fill="none" xmlns="http://www.w3.org/2000/svg">
<path fill-rule="evenodd" clip-rule="evenodd" d="M155.844 63.3832C143.902 26.8421 112.887 57.5966 112.826 32.1866L111.862 32.421C112.324 35.7697 113.389 42.2729 114.018 45.2131C130.655 46.9142 149.515 57.1345 155.837 63.3765L155.844 63.3832ZM88.6352 13.8826C89.9019 13.8824 91.1278 14.331 92.0951 15.1488C93.0625 15.9666 93.7089 17.1006 93.9194 18.3497C98.3264 14.6193 104.923 13.2798 108.654 20.4594V20.3791C109.102 21.2363 111.333 26.1857 111.755 27.197C111.822 27.3511 111.882 27.4984 111.942 27.6525L111.272 27.4582C111.025 27.3846 108.774 21.6315 108.734 21.6315C104.95 22.837 100.269 17.325 100.376 18.1019C100.361 18.6072 100.296 19.1098 100.182 19.6022C99.5118 22.9509 97.5628 25.0806 96.0559 26.5876L95.9689 26.4335C95.0915 27.4515 94.4552 28.2351 94.5289 28.7508C95.8684 32.4344 97.4155 36.4328 96.4243 43.7396C84.3689 45.2399 64.136 47.2625 49.1405 62.0504C53.9024 24.0626 74.6577 49.3588 85.8089 42.5341C94.6093 37.1762 89.2112 32.4344 89.5728 25.8642C89.6018 25.3978 89.6781 24.9356 89.8005 24.4846C89.0657 24.6431 88.3057 24.6453 87.5699 24.4909C86.8342 24.3365 86.1392 24.029 85.5301 23.5884C84.921 23.1478 84.4114 22.5839 84.0345 21.9335C83.6576 21.283 83.4218 20.5606 83.3424 19.813C83.263 19.0654 83.3418 18.3095 83.5737 17.5944C83.8056 16.8793 84.1854 16.221 84.6884 15.6623C85.1914 15.1036 85.8063 14.657 86.4932 14.3515C87.1801 14.0461 87.9236 13.8886 88.6754 13.8893L88.6352 13.8826Z" fill="#01040D"/>
<path fill-rule="evenodd" clip-rule="evenodd" d="M96.4375 43.5452C95.5266 42.3196 96.3705 39.145 96.6183 36.7808C96.7791 35.2337 95.9017 32.9365 95.2185 31.0813C94.6827 29.6481 93.283 32.8227 92.7874 26.8486C92.5999 24.6049 95.9553 24.3839 95.9687 26.6343C97.8506 24.7523 100.51 21.8456 100.355 16.8828C104.441 22.7832 109.457 21.3165 108.593 21.5174C109.484 22.8569 110.957 27.3777 111.232 27.458C118.438 29.5141 120.099 30.4585 111.868 32.4275C112.33 35.7762 113.395 42.2794 114.025 45.2196C108.198 44.7575 98.0181 45.6817 96.4375 43.5452Z" fill="white"/>
<path fill-rule="evenodd" clip-rule="evenodd" d="M97.9896 43.5387C54.8449 43.0364 29.3545 74.3468 26.9167 112.609C25.383 136.586 38.7309 157.261 59.3255 157.113C63.0224 157.113 58.8968 160.891 62.1853 162.699C83.5433 174.46 111.88 168.298 132.856 170.917C150.986 173.174 170.998 166.898 170.362 160.871C169.933 156.805 165.834 144.261 165.747 137.53C215.723 142.922 228.536 84.4867 224.531 56.3106C217.458 44.3759 189.034 49.2717 187.4 54.3349C183.181 89.6772 174.407 81.6872 164.468 70.0939C148.743 51.743 124.444 43.8468 97.9896 43.5387Z" fill="#60C04B"/>
<path fill-rule="evenodd" clip-rule="evenodd" d="M113.943 101.833C116.34 100.969 123.902 107.72 116.735 111.725C119.468 111.946 125.114 117.143 108.96 124.269C103.193 126.64 96.0738 130.076 90.7226 134.891C88.6464 131.61 80.9444 119.97 79.1763 103.708C86.1148 96.5889 94.2923 91.6529 99.3489 90.8358C102.162 90.1058 103.635 92.6441 103.602 94.4591C114.097 91.3046 117.747 98.5646 113.943 101.833Z" fill="white"/>
<path d="M101.037 26.1757C100.69 25.6379 100.774 24.9663 101.225 24.6756C101.676 24.3849 102.322 24.5852 102.669 25.123C103.016 25.6607 102.931 26.3323 102.481 26.623C102.03 26.9137 101.383 26.7134 101.037 26.1757Z" fill="#01040D"/>
<path d="M107.499 23.9879C107.254 23.6087 107.313 23.1355 107.63 22.931C107.947 22.7265 108.402 22.8682 108.647 23.2474C108.892 23.6267 108.833 24.0999 108.516 24.3043C108.199 24.5088 107.743 24.3672 107.499 23.9879Z" fill="#01040D"/>
<path d="M107.247 62.2714C106.869 62.2714 106.563 61.9055 106.563 61.4543C106.563 61.003 106.869 60.6372 107.247 60.6372C107.624 60.6372 107.93 61.003 107.93 61.4543C107.93 61.9055 107.624 62.2714 107.247 62.2714Z" fill="#01040D"/>
<path d="M110.192 78.412C109.815 78.412 109.509 78.0462 109.509 77.5949C109.509 77.1437 109.815 76.7778 110.192 76.7778C110.569 76.7778 110.875 77.1437 110.875 77.5949C110.875 78.0462 110.569 78.412 110.192 78.412Z" fill="#01040D"/>
<path fill-rule="evenodd" clip-rule="evenodd" d="M206.822 22.4888C211.51 6.85698 213.874 -0.282461 218.04 1.13739C225.126 3.50158 220.933 14.6863 216.419 28.6839C224.275 18.8253 231.421 13.541 234.837 16.95C239.606 21.7119 234.891 24.3171 223.552 39.239C223.78 45.2667 223.887 49.1177 218.073 52.895C217.089 53.5648 217.638 55.2592 217.926 56.9804C212.803 56.9804 204.719 58.7352 193.521 51.6225C192.516 50.6581 176.107 28.0342 181.606 22.3012C182.945 20.8747 189.643 19.7562 195.416 31.048C192.61 10.775 194.967 0.72885 199.1 0.273426C202.08 -0.0614446 204.98 8.02903 206.822 22.4888Z" fill="white"/>
<path d="M157.45 57.5362C148.255 38.2275 134.418 44.8111 119.858 42.909C115.571 42.3464 112.926 38.0802 111.968 32.1463M111.225 27.2973C110.669 23.8616 110.18 22.9976 109.075 20.4995C106.537 14.7732 99.5981 13.6748 93.3963 17.9276C91.6215 13.0519 85.6741 13.4203 84.2074 17.3517C82.2652 22.569 86.7256 26.2391 89.7663 24.4911C87.1409 30.3112 94.5549 37.8056 86.1028 42.7148C75.8825 48.6487 53.5266 26.0181 45.8781 58.3934M105.887 25.201C107.032 27.0093 125.35 30.0232 113.06 32.0994C110.535 32.528 105.137 30.9139 103.014 29.1592M61.1549 79.5171C62.7891 83.9106 68.9842 107.881 66.6803 111.665M69.1918 111.035C68.5622 128.616 74.2483 137.684 80.7448 145.694M111.051 50.5441C111.051 61.2599 118.893 84.654 118.518 96.0865C118.11 108.416 122.851 120.016 124.914 131.435C125.53 134.851 126.475 143.357 127.54 152.104M161.321 125.388C164 129.406 167.517 150.416 168.776 155.861M220.078 52.5064C220.969 52.7743 224.927 54.0937 224.766 57.7907C226.146 88.7863 214.861 137.764 170.584 138.394C169.573 138.394 165.969 138.441 165.139 137.724M186.832 63.7581C198.07 72.813 215.812 73.4559 224.538 69.8594M192.471 51.321C205.317 59.5655 217.252 57.1611 220.567 56.7191M195.981 30.6929C189.243 6.63581 201.7 -20.1739 206.857 22.5422C207.58 28.523 211.545 -7.43546 220.426 2.66424C223.855 6.56883 218.417 23.0445 216.481 29.0588C216.2 29.9093 228.255 12.0741 234.913 16.9498C241.57 21.8255 223.641 38.194 223.607 39.4933C223.433 46.7667 223.788 49.2448 217.412 53.4641M194.099 51.9237C192.089 50.6646 176.993 27.016 181.487 22.8904C188.56 16.4006 197.729 35.3275 198.345 35.3074C203.555 35.1735 212.918 43.3443 211.07 49.1041M99.3771 116.42C118.337 104.539 129.428 115.857 109.095 124.202C103.262 126.593 96.015 130.076 90.6101 134.985C88.7081 136.713 82.9684 143.39 80.3296 145.533C69.7745 154.113 59.072 156.859 57.1833 156.859M79.4121 103.862C81.207 120.874 89.2372 132.46 90.9517 135.226M93.7914 109.106C119.489 92.6641 123.622 109.461 116.824 111.578M88.7951 101.799C94.0124 94.0639 121.552 89.4426 114.292 101.223M103.315 93.7625C102.156 87.0651 91.079 91.6059 85.3996 98.5377C83.5444 100.801 80.8252 102.094 78.9031 103.608C69.5267 111.008 59.3131 119.266 52.2273 121.316M119.382 46.097C120.074 48.1902 120.585 50.3391 120.909 52.5198C119.858 51.5889 109.711 46.7734 109.671 46.8538C104.715 56.7392 103.181 57.8911 96.5909 46.3314C96.4305 46.1159 96.3227 45.8659 96.2761 45.6014M107.702 35.1534C108.76 39.2991 104.755 42.6746 100.777 32.9968M108.144 34.3966C104.427 36.292 101.313 33.7268 98.714 29.7084M217.54 53.3436C217.707 54.1138 217.694 56.1967 217.828 56.6387L217.54 53.3436Z" stroke="#01221D" stroke-width="1.42" stroke-linecap="round" stroke-linejoin="round"/>
</svg>
